<?xml version="1.0" standalone="no"?>
<!DOCTYPE svg PUBLIC "-//W3C//DTD SVG 20010904//EN"
 "http://www.w3.org/TR/2001/REC-SVG-20010904/DTD/svg10.dtd">
<svg version="1.0" xmlns="http://www.w3.org/2000/svg"
 width="16.000000pt" height="16.000000pt" viewBox="0 0 16.000000 16.000000"
 preserveAspectRatio="xMidYMid meet">
<metadata>
Created by potrace 1.11, written by Peter Selinger 2001-2013
</metadata>
<g transform="translate(0.000000,16.000000) scale(0.002286,-0.002286)"
fill="#000000" stroke="none">
<path d="M2325 6820 c-19 -69 -216 -774 -220 -790 -2 -8 -18 -64 -35 -125 -17
-60 -33 -117 -35 -125 -146 -527 -274 -985 -290 -1038 -9 -29 -18 -61 -20 -70
-2 -9 -49 -179 -105 -377 -55 -198 -121 -434 -146 -525 -25 -91 -50 -178 -55
-195 -9 -29 -150 -533 -229 -820 -21 -77 -57 -205 -80 -285 -22 -80 -43 -154
-45 -164 -3 -11 -16 -58 -29 -105 -33 -115 -205 -729 -441 -1576 -41 -148 -79
-283 -84 -300 -27 -85 -43 -156 -37 -162 8 -8 2135 -10 2149 -1 6 3 11 12 13
20 1 7 9 49 18 93 8 44 18 91 20 105 3 14 16 83 30 155 72 367 96 489 100 493
6 5 1406 6 1410 0 1 -1 20 -102 41 -223 46 -265 44 -254 50 -284 2 -13 16 -95
31 -182 15 -87 31 -164 35 -170 5 -9 263 -12 1079 -13 590 -1 1074 2 1076 6 3
5 -10 75 -31 161 -12 52 -81 328 -126 507 -61 246 -66 268 -73 300 -2 14 -12
53 -21 87 -9 35 -18 72 -21 83 -5 24 8 -29 -119 485 -58 237 -123 500 -145
585 -21 85 -41 166 -44 180 -2 14 -23 97 -45 185 -41 168 -81 330 -86 355 -2
8 -24 98 -50 200 -26 102 -48 192 -50 200 -2 8 -24 100 -50 205 -26 104 -49
197 -51 207 -10 43 -13 57 -29 118 -9 36 -19 73 -21 83 -2 10 -6 27 -9 37 -3
10 -8 27 -10 37 -2 10 -16 68 -30 128 -15 61 -28 117 -30 125 -2 8 -42 169
-89 358 -47 188 -88 352 -90 365 -3 12 -19 78 -36 147 -17 69 -33 132 -35 140
-2 8 -30 125 -64 260 -226 918 -263 1069 -271 1100 l-9 35 -1281 0 c-1129 0
-1281 -2 -1285 -15z m1344 -1185 c30 -4 63 -9 75 -11 12 -2 33 -6 47 -9 118
-22 298 -105 417 -194 168 -126 290 -273 386 -466 165 -334 186 -689 62 -1067
-38 -114 -131 -315 -186 -398 -5 -8 -17 -28 -25 -43 -31 -56 -212 -318 -419
-607 -115 -162 -227 -322 -247 -355 -70 -112 -167 -280 -195 -334 -54 -109
-95 -123 -138 -47 -13 22 -54 95 -90 161 -82 146 -94 165 -225 357 -211 311
-366 533 -373 536 -4 2 -8 8 -8 14 0 6 -22 40 -48 77 -171 236 -328 548 -387
765 -128 474 -4 955 333 1292 224 222 471 325 794 328 81 1 150 5 154 8 4 4
10 6 13 4 3 -2 30 -7 60 -11z"/>
<path d="M3339 5031 c-278 -79 -475 -336 -484 -630 -6 -228 85 -421 266 -566
201 -160 513 -169 729 -21 98 67 186 168 233 271 54 114 80 291 58 395 -6 30
-13 64 -15 75 -13 60 -78 198 -110 230 -6 7 -24 29 -41 50 -69 88 -231 181
-357 205 -73 14 -212 10 -279 -9z"/>
</g>
</svg>
