<?xml version="1.0" encoding="utf-8"?>
<!-- Generator: Adobe Illustrator 16.0.0, SVG Export Plug-In . SVG Version: 6.00 Build 0)  -->
<!DOCTYPE svg PUBLIC "-//W3C//DTD SVG 1.1//EN" "http://www.w3.org/Graphics/SVG/1.1/DTD/svg11.dtd">
<svg version="1.1" id="Layer_1" xmlns="http://www.w3.org/2000/svg" xmlns:xlink="http://www.w3.org/1999/xlink" x="0px" y="0px"
	 width="300px" height="50px" viewBox="0 0 300 50" enable-background="new 0 0 300 50" xml:space="preserve">
<g>
	<path fill="#FFFFFF" d="M35.33,14.344c-2.386-0.022-4.357,2.015-4.358,4.503c0,2.475,1.933,4.485,4.325,4.498
		c2.387,0.012,4.337-2.004,4.344-4.492C39.648,16.379,37.723,14.366,35.33,14.344z"/>
	<path fill="#FFFFFF" d="M44.608,3H27.473L15.008,47h14.481l1.142-6h9.441l1.042,6h14.481L44.608,3z M43.496,20.132
		c-0.219,1.751-0.885,3.332-1.792,4.806c-0.526,0.855-1.098,1.682-1.674,2.501c-0.857,1.226-1.754,2.42-2.602,3.651
		c-0.476,0.688-0.885,1.284-1.329,1.997C35.881,33.439,35.77,34,35.451,34c-0.087,0-0.173,0-0.259,0
		c-0.098,0-0.216-0.068-0.289-0.193c-0.371-0.646-0.692-1.257-1.102-1.875c-1-1.511-2.034-2.961-3.067-4.447
		c-0.97-1.394-1.942-2.763-2.659-4.324c-0.438-0.951-0.779-1.921-0.938-2.966c-0.203-1.337-0.109-2.651,0.279-3.938
		c0.354-1.171,0.933-2.215,1.729-3.133c0.637-0.735,1.368-1.339,2.2-1.812c0.861-0.489,1.777-0.94,2.752-1.079
		C34.291,10.205,34.481,10,34.673,10c0.408,0,0.814,0,1.222,0c0.042,0,0.082,0.154,0.124,0.159c0.77,0.083,1.518,0.316,2.241,0.608
		c1.116,0.449,2.085,1.162,2.911,2.05c0.722,0.778,1.288,1.686,1.704,2.685C43.493,16.985,43.697,18.537,43.496,20.132z"/>
</g>
<g>
	<path fill="#FFFFFF" d="M72.101,29.499h-1.379v8.991H63.25V13.248h9.249c7.219,0,10.846,2.465,10.846,8.015
		c0,3.192-1.378,5.077-4.462,6.857l6.166,10.37h-8.27L72.101,29.499z M70.722,24.492h1.959c2.03,0,3.046-1.016,3.046-3.229
		c0-1.995-1.198-2.9-3.41-2.9h-1.596L70.722,24.492L70.722,24.492z"/>
	<path fill="#FFFFFF" d="M103.584,30.838H91.832c0.4,2.793,1.778,3.303,3.881,3.303c1.379,0,2.72-0.543,4.39-1.705l2.9,3.918
		c-1.922,1.56-4.606,2.864-7.978,2.864c-7.11,0-10.447-4.388-10.447-10.374c0-5.659,3.229-10.446,9.649-10.446
		c5.73,0,9.502,3.664,9.502,10.157C103.729,29.171,103.658,30.152,103.584,30.838z M96.658,26.521
		c-0.038-1.957-0.436-3.589-2.285-3.589c-1.524,0-2.322,0.87-2.576,3.845h4.861V26.521z"/>
	<path fill="#FFFFFF" d="M124.44,11.506V38.49h-6.383l-0.254-1.994c-1.016,1.342-2.685,2.722-5.477,2.722
		c-5.042,0-7.363-4.136-7.363-10.518c0-6.021,3.119-10.303,8.269-10.303c1.452,0,2.938,0.546,4.026,1.522v-9.138L124.44,11.506z
		 M117.259,32.364v-7.762c-0.654-0.69-1.233-1.089-2.104-1.089c-1.597,0-2.829,1.341-2.829,5.256c0,4.646,1.125,5.299,2.502,5.299
		C115.736,34.068,116.57,33.561,117.259,32.364z"/>
	<path fill="#FFFFFF" d="M145.406,34.467l-1.453,4.604c-2.5-0.182-4.133-0.834-5.221-2.684c-1.415,2.141-3.628,2.83-5.839,2.83
		c-3.882,0-6.384-2.574-6.384-6.166c0-4.281,3.265-6.637,9.358-6.637h1.378v-0.471c0-1.96-0.654-2.468-2.793-2.468
		c-1.125,0-3.083,0.364-5.005,1.016l-1.561-4.572c2.43-0.977,5.44-1.522,7.653-1.522c6.166,0,8.707,2.359,8.707,7.147v6.672
		C144.247,33.598,144.536,34.141,145.406,34.467z M137.246,33.018v-2.865h-0.762c-2.032,0-2.975,0.687-2.975,2.213
		c0,1.086,0.617,1.812,1.595,1.812C136.011,34.178,136.774,33.669,137.246,33.018z"/>
	<path fill="#FFFFFF" d="M166.227,11.506V38.49h-6.385l-0.253-1.994c-1.017,1.342-2.683,2.722-5.478,2.722
		c-5.042,0-7.362-4.136-7.362-10.518c0-6.021,3.12-10.303,8.271-10.303c1.451,0,2.938,0.546,4.024,1.522v-9.138L166.227,11.506z
		 M159.044,32.364v-7.762c-0.651-0.69-1.231-1.089-2.103-1.089c-1.598,0-2.83,1.341-2.83,5.256c0,4.646,1.123,5.299,2.504,5.299
		C157.521,34.068,158.354,33.561,159.044,32.364z"/>
	<path fill="#FFFFFF" d="M181.57,33.598h-5.983l-0.944,4.894h-7.799l7.362-25.242h8.922l7.328,25.242h-7.906L181.57,33.598z
		 M180.52,28.371l-1.961-9.898l-1.922,9.898H180.52z"/>
	<path fill="#FFFFFF" d="M190.893,32.908V11.506l7.183-0.724v21.835c0,0.652,0.291,0.979,0.87,0.979c0.324,0,0.58-0.076,0.762-0.146
		l1.268,5.116c-0.941,0.36-2.355,0.65-3.988,0.65C193.068,39.218,190.893,36.934,190.893,32.908z"/>
	<path fill="#FFFFFF" d="M219.691,30.838h-11.752c0.397,2.793,1.776,3.303,3.879,3.303c1.38,0,2.724-0.543,4.393-1.705l2.898,3.918
		c-1.922,1.56-4.606,2.864-7.979,2.864c-7.107,0-10.443-4.388-10.443-10.374c0-5.659,3.227-10.446,9.646-10.446
		c5.729,0,9.503,3.664,9.503,10.157C219.837,29.171,219.762,30.152,219.691,30.838z M212.766,26.521
		c-0.037-1.957-0.438-3.589-2.287-3.589c-1.523,0-2.319,0.87-2.576,3.845h4.863V26.521z"/>
	<path fill="#FFFFFF" d="M235.505,18.834l-1.125,6.927c-0.614-0.183-1.159-0.291-1.774-0.291c-2.32,0-3.084,1.741-3.627,4.209v8.812
		h-7.181V19.124h6.271l0.582,3.627c0.799-2.54,2.756-4.245,4.896-4.245C234.311,18.506,234.816,18.616,235.505,18.834z"/>
	<path fill="#FFFFFF" d="M251.139,37.549c-1.596,1.126-3.99,1.669-5.803,1.669c-4.859-0.038-7.038-2.755-7.038-7.87v-7.363h-2.319
		v-4.86h2.319v-4.063l7.183-0.833v4.896h4.354l-0.727,4.86h-3.629v7.291c0,1.812,0.619,2.322,1.522,2.322
		c0.545,0,1.162-0.146,1.813-0.51L251.139,37.549z"/>
	<path fill="#FFFFFF" d="M270.036,34.467l-1.453,4.604c-2.501-0.182-4.134-0.834-5.222-2.684c-1.413,2.141-3.625,2.83-5.84,2.83
		c-3.881,0-6.381-2.574-6.381-6.166c0-4.281,3.262-6.637,9.356-6.637h1.376v-0.471c0-1.96-0.652-2.468-2.791-2.468
		c-1.127,0-3.082,0.364-5.006,1.016l-1.561-4.572c2.432-0.977,5.438-1.522,7.652-1.522c6.167,0,8.705,2.359,8.705,7.147v6.672
		C268.875,33.598,269.165,34.141,270.036,34.467z M261.874,33.018v-2.865h-0.763c-2.028,0-2.973,0.687-2.973,2.213
		c0,1.086,0.617,1.812,1.598,1.812C260.641,34.178,261.4,33.669,261.874,33.018z"/>
	<path fill="#FFFFFF" d="M287.302,20.9l-2.538,3.883c-1.381-0.871-3.049-1.413-4.606-1.413c-1.198,0-1.632,0.361-1.632,0.867
		c0,0.655,0.218,0.945,3.879,2.07c3.664,1.123,5.695,2.717,5.695,6.237c0,3.989-3.808,6.673-9.175,6.673
		c-3.411,0-6.528-1.199-8.524-3.083l3.408-3.771c1.379,1.086,3.155,1.922,4.935,1.922c1.269,0,2.028-0.399,2.028-1.198
		c0-0.942-0.396-1.123-3.735-2.142c-3.626-1.086-5.62-3.154-5.62-6.271c0-3.484,3.014-6.277,8.451-6.277
		C282.73,18.397,285.523,19.377,287.302,20.9z"/>
</g>
</svg>
